
<svg version="1.1" id="Layer_2" xmlns="http://www.w3.org/2000/svg" xmlns:xlink="http://www.w3.org/1999/xlink" x="0px" y="0px"
	 viewBox="0 0 1250.4 1101" style="enable-background:new 0 0 1250.4 1101;" xml:space="preserve">
<defs>
<style type="text/css">
	.st0{fill:none;stroke:orange;stroke-width:8;stroke-miterlimit:10;}

	.st0{
	stroke-dasharray:4000;
	stroke-dashoffset:0;
	animation:dash 4s linear forwards;
	-webkit-animation:dash 4s linear forwards;
	-o-animation:dash 4s linear forwards;
	-moz-animation:dash 4s linear forwards;
	animation-iteration-count:infinite;
	-webkit-animation-iteration-count:infinite;
	animation-delay:4s;
	-webkit-animation-delay:4s;
	}
	@-webkit-keyframes dash {
	from {stroke-dashoffset:4000;}
	to {stroke-dashoffset:0;}}
</style>
</defs>
<path class="st0" id="aslogo" d="M644.6,784.1l-60.8-310c-12.1-61.6-15.7-124.5-10.6-187.1c4.5-55.7,9.3-115.4,9.3-115.4c0.4-5-4.2-8.9-9-7.7
	l-79.6,19.6c-1.6,0.4-3,1.3-4,2.6C341.6,344.4,311.9,390.8,185,580c-5,7.4-82.2,10.1-116.6,12.6c-9.5,0.7-18.4,4.6-25.3,11.2
	l-28.3,26.8c-4.3,6.1,0.7,14.3,8,13.5c7.5-0.9,14.8-2.2,15.1-2.3l79.9-6.9c47.9-1.9-99.7,180.4-26.3,260.7
	c44.6,48.9,117-37.8,117.5-37.9c57.2-60.3-86.3,17.7,22.4-201.1c4.4-8.8,11.5-17.3,21.3-17l94.9,3.1c17.5,0.6,34.9,0.1,52.3-1.5
	L467,635c17.8-1.6,34.2,9.9,38.6,27.2l27.7,107c8.5,33,35,117.8,88.4,108.1c10.6-1.9,37.5-10.2,53.6-24.4
	c10.5-9.2,10.1-25.7-0.7-34.6c-0.2-0.1-0.3-0.3-0.5-0.4C663.4,809.2,647.3,797.7,644.6,784.1z M281,585.4
	c-11.6,0-18.8-12.7-12.7-22.6l194.9-269.9c4.4-4.9,20.1,192.2,20.1,192.2c0,0.2,11.8,86.1,11.8,86.1
	C495.8,575.4,281,585.4,281,585.4z"/>
<path class="st0" d="M999.3,262.1c-35.1,56.8-25.5,130.4,21.7,177.6l120,120c76.5,75.9,84.5,111.8,54.7,225.7
	c-69.3,265.1-397.9,129.4-397.9,129.4c-114.8-42.1-114.8-120.1-94.9-170.5c49.7-126.1,143.5-29.1,105.2,12.3
	c-45.2,48.9,26.1,81.4,58.5,91c63.4,18.7,186.2,15.5,224.6-50.2c60.8-104-62.7-210-88.1-226.6c-116.2-75.5-264.3-328.2,32-427.5
	c108.8-36.5,185.9,53.3,203.5,88.2c9.7,19.2,0,123.4-60,53.2C1094,185.9,1031.8,209.4,999.3,262.1z"/>
</svg>
