<?xml version="1.0" encoding="utf-8"?>
<!-- Generator: Adobe Illustrator 23.0.3, SVG Export Plug-In . SVG Version: 6.00 Build 0)  -->
<svg version="1.1" id="Layer_1" xmlns="http://www.w3.org/2000/svg" xmlns:xlink="http://www.w3.org/1999/xlink" x="0px" y="0px"
	 viewBox="0 0 1920 1080" style="enable-background:new 0 0 1920 1080;" xml:space="preserve">
<style type="text/css">
	.st0{fill:none;stroke:#000000;stroke-miterlimit:10;opacity:0.15}
	.st1{fill:#E2D3E2;opacity:0.15}
	.st2{fill:#C94F4F;opacity:0.15}
	.st3{fill:none;stroke:#999999;stroke-width:2;stroke-miterlimit:10;opacity:0.15}
	.st4{fill:none;stroke:#FFE4E1;stroke-width:2;stroke-miterlimit:10;opacity:0.15}
	.st1,.st2,.st3,.st4 {
	postion:relative;
    -webkit-animation:spin 10s linear infinite;
    -moz-animation:spin 10s linear infinite;
    animation:spin 10s linear infinite;
	animation-direction:alternate;
}
@-moz-keyframes spin { 100% { -moz-transform: rotate(5deg); } }
@-webkit-keyframes spin { 100% { -webkit-transform: rotate(5deg); } }
@keyframes spin { 100% { -webkit-transform: rotate(10deg); transform:rotate(5deg); } }
</style>
<path class="st0" d="M552.3,36.4"/>
<g id="XMLID_1_">
	<g>
		<path class="st1" d="M1013.7,179.3c1.4,2.6,0.9,6-1.3,8.2c-2.8,2.7-7.2,2.7-9.9-0.1s-2.6-7.2,0.1-9.9c2.8-2.7,7.2-2.7,9.9,0.1
			c0.3,0.3,0.6,0.6,0.8,1C1013.5,178.8,1013.6,179.1,1013.7,179.3z"/>
		<path class="st1" d="M639.4,852.6c2.3,3.1,1.6,7.5-1.6,9.8c-3.1,2.3-7.5,1.6-9.8-1.6c-0.9-1.2-1.3-2.6-1.3-4c0-2.2,1-4.4,2.9-5.8
			C632.8,848.8,637.1,849.5,639.4,852.6z"/>
		<path class="st1" d="M338.9,484.8c-2.4,1.3-5.3,1-7.4-0.5c-0.8-0.6-1.5-1.4-2-2.3c-1.8-3.4-0.5-7.7,2.9-9.5
			c3.4-1.8,7.6-0.5,9.5,2.9c1.7,3.1,0.7,6.9-2,8.9C339.5,484.5,339.2,484.6,338.9,484.8z"/>
		<path class="st1" d="M243.1,227.5c2.5,2.8,2.4,7.1-0.3,9.7c-2.8,2.7-7.2,2.6-9.9-0.1c-1.8-1.8-2.3-4.3-1.8-6.6
			c0.3-1.2,0.9-2.4,1.9-3.3c1.1-1,2.4-1.7,3.8-1.9c2.2-0.4,4.5,0.3,6.1,2C242.9,227.4,243,227.4,243.1,227.5z"/>
		<path class="st1" d="M614.2,919.1c0.3-0.3,0.7-0.6,1-0.9c3.1-2.3,7.5-1.6,9.8,1.6c2.3,3.1,1.6,7.5-1.6,9.8
			c-3.1,2.3-7.5,1.6-9.8-1.6C611.7,925.2,612,921.5,614.2,919.1z"/>
		<path class="st1" d="M568.1,779.6c2.3,3.1,1.6,7.5-1.6,9.8c-1.4,1-3.1,1.5-4.8,1.3c0,0,0,0,0,0c-1.9-0.2-3.8-1.2-5-2.9
			c-2.3-3.1-1.6-7.5,1.6-9.8C561.4,775.7,565.8,776.4,568.1,779.6z"/>
		<path class="st1" d="M466.5,148.5c0,1.7-0.6,3.2-1.6,4.4c-1.3,1.6-3.2,2.6-5.4,2.6c-3.9,0-7-3.1-7-7s3.1-7,7-7
			c1.5,0,2.9,0.5,4,1.3C465.3,144.1,466.5,146.1,466.5,148.5z"/>
		<path class="st1" d="M508,71c-2.1,0.8-4.6,0.6-6.5-0.8c-0.4-0.2-0.7-0.5-1-0.8c-2.7-2.8-2.6-7.2,0.1-9.9c2.8-2.7,7.2-2.7,9.9,0.1
			s2.6,7.2-0.1,9.9C509.7,70.2,508.9,70.7,508,71z"/>
		<path class="st1" d="M585.5,199.6c2.7,2.8,2.6,7.2-0.1,9.9c-2.8,2.7-7.2,2.7-9.9-0.1c-2.1-2.1-2.5-5.2-1.4-7.7
			c0.3-0.8,0.8-1.5,1.5-2.2c0.5-0.5,1-0.8,1.5-1.1C579.8,196.9,583.3,197.3,585.5,199.6z"/>
		<path class="st2" d="M1735.5,464.8c1.8,1.3,3,3.4,3,5.7c0,1.7-0.6,3.2-1.6,4.4c-1.3,1.6-3.2,2.6-5.4,2.6c-3.9,0-7-3.1-7-7
			s3.1-7,7-7C1733,463.5,1734.4,464,1735.5,464.8z"/>
		<path class="st1" d="M1525.2,255.4c2.3,3.1,1.6,7.5-1.6,9.8c-3.1,2.3-7.5,1.6-9.8-1.6c-0.9-1.3-1.4-2.8-1.3-4.3
			c0.1-2.1,1.1-4.2,2.9-5.5c1.3-0.9,2.8-1.4,4.2-1.3C1521.8,252.6,1523.9,253.6,1525.2,255.4z"/>
		<path class="st1" d="M1509.5,815.6c2.7,2.8,2.7,7.2-0.1,9.9s-7.2,2.6-9.9-0.1c-2.7-2.8-2.7-7.2,0.1-9.9S1506.8,812.8,1509.5,815.6
			z"/>
		<path class="st1" d="M1383.5,641.5c0.7-0.3,1.5-0.4,2.3-0.4c3.7,0,6.7,3,6.7,6.7c0,3.7-3,6.7-6.7,6.7c-3.7,0-6.7-3-6.7-6.7
			c0-2.8,1.7-5.3,4.2-6.3C1383.4,641.5,1383.4,641.5,1383.5,641.5z"/>
		<path class="st1" d="M1384.1,846.3c0.2,0.7,0.4,1.4,0.4,2.2c0,1.3-0.4,2.5-1,3.6c-1,1.7-2.8,3-4.8,3.3c-0.4,0.1-0.8,0.1-1.2,0.1
			c-2.1,0-4.1-1-5.3-2.5c-1.1-1.2-1.7-2.8-1.7-4.5c0-3.9,3.1-7,7-7C1380.6,841.5,1383.2,843.5,1384.1,846.3z"/>
		<path class="st1" d="M1340.8,526.6c0.7,3-0.8,6-3.3,7.5c-0.6,0.4-1.3,0.7-2.1,0.8c-1.3,0.3-2.5,0.2-3.7-0.2
			c-1.9-0.6-3.5-2.1-4.3-4c-0.2-0.4-0.3-0.8-0.4-1.2c-0.4-2.1,0.1-4.2,1.3-5.7c1-1.3,2.4-2.2,4.1-2.6
			C1336.3,520.4,1340,522.8,1340.8,526.6z"/>
		<path class="st1" d="M1336,240.6c0.5,1.1,0.7,2.3,0.6,3.5c-0.2,1.9-1.2,3.8-2.9,5.1c-3.1,2.3-7.5,1.6-9.8-1.6
			c-2.3-3.1-1.6-7.5,1.6-9.8c3.1-2.3,7.5-1.6,9.8,1.6C1335.6,239.8,1335.8,240.2,1336,240.6z"/>
		<path class="st1" d="M1315.5,898.5c0,2.7-1.5,5-3.7,6.2c-1,0.5-2.1,0.8-3.3,0.8c-1.2,0-2.3-0.3-3.3-0.8c-2.2-1.2-3.8-3.5-3.8-6.2
			c0-3.9,3.1-7,7-7c2.3,0,4.4,1.2,5.7,2.9C1315,895.6,1315.5,897,1315.5,898.5z"/>
		<path class="st1" d="M1282.5,650.6c2.7,2.8,2.7,7.2-0.1,9.9s-7.2,2.6-9.9-0.1c-2.6-2.7-2.7-6.8-0.2-9.5c0.1-0.1,0.2-0.3,0.3-0.4
			c2.6-2.5,6.7-2.6,9.4-0.3C1282.2,650.3,1282.3,650.4,1282.5,650.6z"/>
		<path class="st1" d="M1277.3,469.8c0.5,2.3-0.2,4.6-1.7,6.2c-0.9,1-2.2,1.8-3.7,2.1c-2.6,0.6-5.2-0.4-6.8-2.3
			c-0.7-0.9-1.3-1.9-1.5-3.1c-0.3-1.1-0.2-2.3,0.1-3.3c0.7-2.4,2.6-4.4,5.3-5C1272.8,463.6,1276.5,466,1277.3,469.8z"/>
		<path class="st1" d="M1185.7,443.6c0.3,1.5,0.2,2.9-0.4,4.2c-0.9,2-2.7,3.6-5,4.1c-1.6,0.4-3.3,0.1-4.7-0.6
			c-1.8-0.9-3.2-2.6-3.7-4.8c-0.8-3.8,1.6-7.5,5.4-8.3C1181.2,437.4,1184.9,439.8,1185.7,443.6z"/>
		<path class="st1" d="M1156.6,573.5c0.4,1.8,0.2,3.7-0.8,5.4c0,0.1-0.1,0.1-0.1,0.2c-2.1,3.2-6.5,4.1-9.7,2c-3.2-2.1-4.1-6.5-2-9.7
			c1.6-2.5,4.5-3.6,7.3-3c0.8,0.2,1.7,0.5,2.4,1c0.6,0.4,1,0.8,1.4,1.3C1155.8,571.4,1156.3,572.4,1156.6,573.5z"/>
		<path class="st1" d="M1092.5,779.6c2.7,2.8,2.7,7.2-0.1,9.9s-7.2,2.6-9.9-0.1c-2.7-2.8-2.7-7.2,0.1-9.9S1089.8,776.8,1092.5,779.6
			z"/>
		<path class="st1" d="M1033.5,814.6c2.7,2.8,2.7,7.2-0.1,9.9s-7.2,2.6-9.9-0.1c-2.7-2.8-2.6-7.2,0.1-9.9
			C1026.4,811.8,1030.8,811.8,1033.5,814.6z"/>
		<path class="st1" d="M1013.5,711.6c2.7,2.8,2.6,7.2-0.1,9.9c-2.8,2.7-7.2,2.6-9.9-0.1c-2.1-2.1-2.5-5.2-1.4-7.7
			c0.3-0.8,0.8-1.5,1.5-2.2c0.5-0.5,1-0.8,1.5-1.1C1007.8,708.9,1011.3,709.3,1013.5,711.6z"/>
		<path class="st1" d="M938.5,571.6c2.7,2.8,2.6,7.2-0.1,9.9c-0.7,0.7-1.5,1.2-2.4,1.5c-2.1,0.8-4.6,0.6-6.5-0.8
			c-0.4-0.2-0.7-0.5-1-0.8c-2.7-2.8-2.6-7.2,0.1-9.9C931.4,568.8,935.8,568.8,938.5,571.6z"/>
		<path class="st1" d="M891.5,654.8c1.8,1.3,3,3.4,3,5.7c0,1.7-0.6,3.2-1.6,4.4c-1.3,1.6-3.2,2.6-5.4,2.6c-3.9,0-7-3.1-7-7
			s3.1-7,7-7C889,653.5,890.4,654,891.5,654.8z"/>
		<path class="st1" d="M863.7,301.2c1.8,3.4,0.5,7.6-2.9,9.5c-2.3,1.2-5,1-7.1-0.3c-1-0.6-1.8-1.5-2.3-2.6c-1.1-2.1-1.1-4.6,0-6.6
			c0.6-1.2,1.6-2.2,2.9-2.9C857.6,296.5,861.8,297.8,863.7,301.2z"/>
		<path class="st2" d="M843.5,970.6c2.7,2.8,2.6,7.2-0.1,9.9c-2.8,2.7-7.2,2.6-9.9-0.1c-2.7-2.8-2.6-7.2,0.1-9.9
			C836.4,967.8,840.8,967.8,843.5,970.6z"/>
		<path class="st1" d="M820.5,445.5c1.8,3.4,0.5,7.6-2.9,9.5c-3.4,1.8-7.7,0.5-9.5-2.9c-0.5-0.9-0.8-1.9-0.8-2.8
			c-0.1-1.5,0.3-3.1,1.1-4.4c0.6-0.9,1.4-1.6,2.4-2.2c0.1,0,0.1-0.1,0.2-0.1c1.7-0.9,3.5-1,5.2-0.5
			C818,442.6,819.6,443.8,820.5,445.5z"/>
		<path class="st1" d="M724.9,281.1c0.6,1.1,0.9,2.4,0.8,3.6c-0.1,2-1,3.9-2.7,5.2c-0.3,0.3-0.7,0.5-1,0.7c-1.9,1-4,1.1-5.9,0.3
			c-1.5-0.6-2.8-1.7-3.6-3.2c-1.8-3.4-0.5-7.6,2.9-9.5C718.8,276.5,723.1,277.7,724.9,281.1z"/>
		<path class="st1" d="M687.4,453c0.8,1.5,1,3.1,0.7,4.6c-0.4,2-1.7,3.8-3.6,4.8c-3.4,1.8-7.7,0.5-9.5-2.9c-1.8-3.4-0.5-7.6,2.9-9.5
			c1.3-0.7,2.8-0.9,4.2-0.8C684.3,449.6,686.3,451,687.4,453z"/>
		<path class="st2" d="M687.6,357.7c1.3,2.3,1,5.1-0.3,7.2c-0.6,0.9-1.5,1.8-2.5,2.3c-1,0.6-2.1,0.8-3.2,0.8c-2.5,0-5-1.3-6.2-3.7
			c-1.8-3.4-0.5-7.7,2.9-9.5c2.1-1.1,4.4-1.1,6.4-0.1C685.8,355.4,686.8,356.4,687.6,357.7z"/>
		<path class="st1" d="M639.6,630.2c0.7,0.3,1.3,0.8,1.9,1.4c2.7,2.8,2.6,7.2-0.1,9.9c-2.8,2.7-7.2,2.6-9.9-0.1
			c-2.7-2.8-2.6-7.2,0.1-9.9c1.6-1.6,3.8-2.2,5.8-1.9C638.2,629.7,638.9,629.9,639.6,630.2z"/>
		<path class="st1" d="M610.7,790.7c2.3,3.1,1.6,7.5-1.6,9.8c-2.7,1.9-6.2,1.7-8.6-0.3l0,0c-0.4-0.4-0.8-0.8-1.1-1.2
			c-2.3-3.1-1.6-7.5,1.6-9.8C604,786.9,608.4,787.6,610.7,790.7z"/>
		<path class="st1" d="M553.5,856.7c1,1.4,1.4,3,1.3,4.5c-0.1,1.6-0.7,3.1-1.9,4.4c-0.3,0.3-0.6,0.6-1,0.9c-0.6,0.4-1.2,0.7-1.8,0.9
			c-2.9,1-6.1,0.1-8-2.5c-2.1-2.9-1.6-6.9,1-9.3c0.2-0.2,0.4-0.3,0.6-0.5c1.8-1.3,4.1-1.6,6.1-1c1.2,0.4,2.3,1,3.2,2
			C553.2,856.3,553.4,856.5,553.5,856.7z"/>
		<path class="st1" d="M518.5,552.6c1.4,1.5,2.1,3.4,2,5.2c-0.1,1.7-0.8,3.4-2.1,4.7c-2.8,2.7-7.2,2.6-9.9-0.1
			c-2.7-2.8-2.6-7.2,0.1-9.9C511.4,549.8,515.8,549.8,518.5,552.6z"/>
		<path class="st1" d="M417.8,613.3c1.8,3.4,0.5,7.7-2.9,9.5s-7.6,0.5-9.5-2.9c-1.1-2-1.1-4.3-0.2-6.2h0c0.6-1.3,1.6-2.5,3-3.2
			c0,0,0.1,0,0.1-0.1C411.8,608.6,416,609.9,417.8,613.3z"/>
		<path class="st2" d="M294.5,62.5c2.7,2.8,2.6,7.2-0.1,9.9c-2.8,2.7-7.2,2.6-9.9-0.1l0,0c-2.7-2.8-2.6-7.2,0.1-9.9
			C287.3,59.7,291.8,59.7,294.5,62.5z"/>
	</g>
	<g>
		<polyline class="st3" points="215.1,151.1 138.6,186.9 132,190 		"/>
		<polyline class="st3" points="171,226 174.2,221 217.3,153.6 		"/>
		<line class="st3" x1="236.7" y1="225.3" x2="221.9" y2="154.8"/>
		<polyline class="st3" points="231.1,230.5 177.5,228.2 172,228 		"/>
		<path class="st3" d="M171.8,228.1c0.4,0.9,0.6,2,0.5,3c-0.1,1.7-0.8,3.4-2.1,4.8c-2.8,2.7-7.2,2.6-9.9-0.1
			c-2.7-2.8-2.6-7.2,0.1-9.9c2.4-2.4,6.2-2.6,8.9-0.8c0.4,0.2,0.7,0.5,1,0.9c0.1,0.1,0.2,0.2,0.3,0.4
			C171.1,226.9,171.5,227.5,171.8,228.1z"/>
		<line class="st3" x1="289" y1="191" x2="226.6" y2="152.3"/>
		<polyline class="st3" points="228.2,148.2 228.2,148.2 283.9,149.7 292.8,149.9 293,150 		"/>
		<line class="st3" x1="289" y1="198.5" x2="243.1" y2="227.5"/>
		<path class="st3" d="M1476.1,179.1c-1.2-2.9-0.2-6.4,2.4-8.3c0.4-0.3,0.9-0.6,1.4-0.8c2.9-1.2,6.4-0.4,8.4,2.3
			c0.3,0.3,0.5,0.7,0.6,1.1c1.4,3,0.6,6.7-2.2,8.7c-0.2,0.2-0.5,0.3-0.7,0.5"/>
		<path class="st4" d="M1486,182.7c-3,1.7-6.9,0.8-9-2c-0.3-0.5-0.6-1-0.8-1.5"/>
		<path class="st3" d="M1519.7,252.6c2.1,0.1,4.2,1.1,5.5,2.9c2.3,3.1,1.6,7.5-1.6,9.8c-3.1,2.3-7.5,1.6-9.8-1.6
			c-0.9-1.3-1.4-2.8-1.3-4.3c0.1-2.1,1.1-4.2,2.9-5.5C1516.7,252.9,1518.2,252.5,1519.7,252.6z"/>
		<line class="st3" x1="1519.7" y1="252.6" x2="1486" y2="182.7"/>
		<line class="st3" x1="1524.5" y1="262.5" x2="1523.4" y2="260.3"/>
		<line class="st3" x1="1479.9" y1="170.1" x2="1458.6" y2="125.8"/>
		<line class="st3" x1="1512.6" y1="259.4" x2="1336.6" y2="244.1"/>
		<line class="st3" x1="1525.5" y1="260.5" x2="1523.4" y2="260.3"/>
		<polyline class="st3" points="284,72 278.2,79 225.7,142.4 		"/>
		<path class="st3" d="M688.1,457.7c-0.4,2-1.7,3.8-3.6,4.8c-3.4,1.8-7.7,0.5-9.5-2.9c-1.8-3.4-0.5-7.6,2.9-9.5
			c1.3-0.7,2.8-0.9,4.2-0.8"/>
		<line class="st3" x1="687.2" y1="364.9" x2="808.5" y2="444.9"/>
		<path class="st3" d="M807.3,449.3l-119.3,8.4c0.3-1.5,0.1-3.2-0.7-4.6c-1.1-2.1-3.1-3.4-5.3-3.6l-0.6-81.3"/>
		<line class="st3" x1="853.7" y1="310.4" x2="816.2" y2="442.1"/>
		<line class="st3" x1="851.3" y1="301.2" x2="725.7" y2="284.8"/>
		<line class="st3" x1="716.2" y1="291" x2="684.5" y2="354.8"/>
		<line class="st3" x1="810.8" y1="442.7" x2="723.1" y2="290"/>
		<path class="st3" d="M408.2,610.5c0,0,0.1,0,0.1-0.1c3.4-1.8,7.6-0.5,9.5,2.9c1.8,3.4,0.5,7.7-2.9,9.5s-7.6,0.5-9.5-2.9
			c-1.1-2-1.1-4.3-0.2-6.2"/>
		<path class="st3" d="M687.2,364.9c-0.6,0.9-1.5,1.8-2.5,2.3c-1,0.6-2.1,0.8-3.2,0.8c-2.5,0-5-1.3-6.2-3.7
			c-1.8-3.4-0.5-7.7,2.9-9.5c2.1-1.1,4.4-1.1,6.4-0.1c1.3,0.6,2.4,1.6,3.1,3C688.8,360.1,688.6,362.8,687.2,364.9z"/>
		<path class="st3" d="M816.2,442.1c1.8,0.5,3.3,1.7,4.3,3.4c1.8,3.4,0.5,7.6-2.9,9.5c-3.4,1.8-7.7,0.5-9.5-2.9
			c-0.5-0.9-0.8-1.9-0.8-2.8c-0.1-1.5,0.3-3.1,1.1-4.4c0.6-0.9,1.4-1.6,2.4-2.2c0.1,0,0.1-0.1,0.2-0.1
			C812.7,441.7,814.6,441.6,816.2,442.1z"/>
		<path class="st3" d="M228.2,148.2c0,0.2,0,0.4-0.1,0.6c-0.2,1.3-0.7,2.5-1.5,3.5c-0.2,0.2-0.3,0.4-0.5,0.5c-1.2,1.2-2.7,1.8-4.3,2
			c-1.6,0.1-3.2-0.3-4.6-1.2c-0.4-0.3-0.7-0.5-1-0.9c-0.5-0.5-0.9-1-1.2-1.6c-1.4-2.7-1-6.1,1.3-8.3c2.6-2.5,6.6-2.6,9.3-0.4
			c0.2,0.2,0.4,0.4,0.6,0.6C227.7,144.4,228.3,146.3,228.2,148.2z"/>
		<path class="st3" d="M304.6,156c-2.8,2.7-7.2,2.6-9.9-0.1c-1.2-1.3-1.9-2.9-2-4.5c0-0.4,0-0.9,0.1-1.4c0.2-1.5,0.9-2.9,2-4
			c2.8-2.7,7.2-2.7,9.9,0.1S307.4,153.3,304.6,156z"/>
		<path class="st3" d="M289,191c0.3-0.5,0.6-0.9,1-1.3c2.8-2.7,7.2-2.6,9.9,0.1c2.7,2.8,2.6,7.2-0.1,9.9c-2.8,2.7-7.2,2.6-9.9-0.1
			c-0.4-0.4-0.6-0.7-0.9-1.1C287.6,196.2,287.6,193.3,289,191z"/>
		<path class="st3" d="M183.4,438.5c-2.8,2.7-7.2,2.6-9.9-0.1c-2.7-2.8-2.7-7.2,0.1-9.9c1.4-1.3,3.1-2,4.9-2c1.8,0,3.6,0.7,5,2.1
			C186.2,431.4,186.2,435.8,183.4,438.5z"/>
		<path class="st3" d="M124.4,395.5c-2.8,2.7-7.2,2.6-9.9-0.1c-2.7-2.8-2.7-7.2,0.1-9.9c2.8-2.7,7.2-2.6,9.9,0.1
			C127.2,388.4,127.2,392.8,124.4,395.5z"/>
		<path class="st3" d="M1033.4,824.5c-2.8,2.7-7.2,2.6-9.9-0.1c-2.7-2.8-2.6-7.2,0.1-9.9c2.8-2.7,7.2-2.6,9.9,0.1
			C1036.2,817.4,1036.2,821.8,1033.4,824.5z"/>
		<path class="st3" d="M1005.2,710.3c2.7-1.5,6.1-1,8.4,1.3c2.7,2.8,2.6,7.2-0.1,9.9c-2.8,2.7-7.2,2.6-9.9-0.1
			c-2.1-2.1-2.5-5.2-1.4-7.7"/>
		<path class="st3" d="M1092.4,789.5c-2.8,2.7-7.2,2.6-9.9-0.1c-2.7-2.8-2.7-7.2,0.1-9.9s7.2-2.6,9.9,0.1
			C1095.2,782.4,1095.2,786.8,1092.4,789.5z"/>
		<path class="st3" d="M1113.4,187.5c-2.8,2.7-7.2,2.7-9.9-0.1c-2.5-2.6-2.6-6.6-0.4-9.3c0.2-0.2,0.4-0.4,0.6-0.6
			c2.8-2.7,7.2-2.7,9.9,0.1S1116.2,184.8,1113.4,187.5z"/>
		<path class="st3" d="M1012.4,187.5c-2.8,2.7-7.2,2.7-9.9-0.1s-2.6-7.2,0.1-9.9c2.8-2.7,7.2-2.7,9.9,0.1c0.3,0.3,0.6,0.6,0.8,1
			c0.2,0.2,0.3,0.5,0.4,0.7C1015.1,182,1014.6,185.3,1012.4,187.5z"/>
		<path class="st3" d="M1282,650.1c0.2,0.1,0.3,0.3,0.5,0.5c2.7,2.8,2.7,7.2-0.1,9.9s-7.2,2.6-9.9-0.1c-2.6-2.7-2.7-6.8-0.2-9.5
			c0.1-0.1,0.2-0.3,0.3-0.4C1275.2,648,1279.3,647.8,1282,650.1z"/>
		<path class="st3" d="M1155.1,570.6c0.7,0.8,1.2,1.8,1.5,2.9c0.4,1.8,0.2,3.7-0.8,5.4c0,0.1-0.1,0.1-0.1,0.2
			c-2.1,3.2-6.5,4.1-9.7,2c-3.2-2.1-4.1-6.5-2-9.7c1.6-2.5,4.5-3.6,7.3-3"/>
		<path class="st3" d="M843.4,980.5c-2.8,2.7-7.2,2.6-9.9-0.1c-2.7-2.8-2.6-7.2,0.1-9.9c2.8-2.7,7.2-2.6,9.9,0.1
			C846.2,973.4,846.2,977.8,843.4,980.5z"/>
		<path class="st3" d="M755.4,1008.5c-2.8,2.7-7.2,2.6-9.9-0.1c-2.7-2.8-2.6-7.2,0.1-9.9c2.8-2.7,7.2-2.6,9.9,0.1
			C758.2,1001.4,758.2,1005.8,755.4,1008.5z"/>
		<path class="st3" d="M196.4,910.5c-2.2,2.1-5.4,2.5-8,1.3c-0.7-0.3-1.3-0.8-1.9-1.4c-2.7-2.8-2.7-7.2,0.1-9.9s7.2-2.6,9.9,0.1
			C199.2,903.4,199.2,907.8,196.4,910.5z"/>
		<path class="st3" d="M65.4,878.5c-2.8,2.7-7.2,2.6-9.9-0.1c-2.7-2.8-2.7-7.2,0.1-9.9s7.2-2.6,9.9,0.1c1.9,2,2.5,4.8,1.6,7.3
			C66.7,876.8,66.2,877.7,65.4,878.5z"/>
		<path class="st3" d="M188.4,664.5c-2.6,2.5-6.5,2.6-9.2,0.5c-0.2-0.2-0.5-0.4-0.7-0.6c-2.7-2.8-2.7-7.2,0.1-9.9s7.2-2.6,9.9,0.1
			C191.2,657.4,191.2,661.8,188.4,664.5z"/>
		<path class="st3" d="M139.4,652.5c-0.8,0.8-1.7,1.3-2.6,1.6c-2.5,0.8-5.3,0.3-7.3-1.7c-2.7-2.8-2.7-7.2,0.1-9.9s7.2-2.6,9.9,0.1
			C142.2,645.4,142.2,649.8,139.4,652.5z"/>
		<path class="st3" d="M130.1,197.6c-2.8,2.7-7.2,2.6-9.9-0.1c-2.7-2.8-2.7-7.2,0.1-9.9c2.8-2.7,7.2-2.6,9.9,0.1
			C132.9,190.5,132.9,194.9,130.1,197.6z"/>
		<path class="st3" d="M294.3,72.4c-2.8,2.7-7.2,2.6-9.9-0.1l0,0c-2.7-2.8-2.6-7.2,0.1-9.9c2.8-2.7,7.2-2.6,9.9,0.1
			C297.1,65.3,297.1,69.7,294.3,72.4z"/>
		<polyline class="st3" points="550.2,867.4 576.4,955.6 576.5,955.5 		"/>
		<polyline class="st3" points="553,865.6 614.2,919.1 614.5,919.5 		"/>
		<polyline class="st3" points="554.8,861.2 626.7,856.8 626.5,856.5 		"/>
		<line class="st3" x1="600.5" y1="800.2" x2="600.5" y2="800.5"/>
		<line class="st3" x1="553" y1="856.2" x2="600.5" y2="800.2"/>
		<line class="st3" x1="561.7" y1="790.6" x2="560.5" y2="790.5"/>
		<line class="st3" x1="549.8" y1="854.1" x2="561.7" y2="790.6"/>
		<path class="st3" d="M561.7,790.6C561.7,790.6,561.7,790.6,561.7,790.6"/>
		<path class="st4" d="M561.7,790.6c-1.9-0.2-3.8-1.2-5-2.9c-2.3-3.1-1.6-7.5,1.6-9.8c3.1-2.3,7.5-1.6,9.8,1.6
			c2.3,3.1,1.6,7.5-1.6,9.8C565,790.4,563.3,790.8,561.7,790.6"/>
		<polyline class="st3" points="482.5,787.5 482.3,787.3 543.1,855.7 		"/>
		<path class="st3" d="M554.8,861.2c-0.1,1.6-0.7,3.1-1.9,4.4c-0.3,0.3-0.6,0.6-1,0.9c-0.6,0.4-1.2,0.7-1.8,0.9
			c-2.9,1-6.1,0.1-8-2.5c-2.1-2.9-1.6-6.9,1-9.3c0.2-0.2,0.4-0.3,0.6-0.5c1.8-1.3,4.1-1.6,6.1-1c1.2,0.4,2.3,1,3.2,2
			c0.2,0.2,0.3,0.4,0.5,0.6C554.5,858.1,554.9,859.7,554.8,861.2z"/>
		<path class="st4" d="M1458.6,125.8c-3,1.4-6.6,0.5-8.6-2.2c-2.3-3.1-1.6-7.5,1.6-9.8c3.1-2.3,7.5-1.6,9.8,1.6
			c1,1.4,1.4,3.1,1.3,4.8"/>
		<path class="st3" d="M1462.6,120.2c-0.2,1.9-1.2,3.8-2.9,5c-0.4,0.3-0.8,0.5-1.1,0.7"/>
		<path class="st3" d="M1577.6,130.9c0.2-1.9,1.2-3.8,2.9-5c3.1-2.3,7.5-1.6,9.8,1.6c2.3,3.1,1.6,7.5-1.6,9.8
			c-3.1,2.3-7.5,1.6-9.8-1.6c-0.3-0.4-0.6-0.9-0.8-1.3C1577.7,133.2,1577.5,132,1577.6,130.9z"/>
		<path class="st3" d="M1336.6,244.1c-0.2,1.9-1.2,3.8-2.9,5.1c-3.1,2.3-7.5,1.6-9.8-1.6c-2.3-3.1-1.6-7.5,1.6-9.8
			c3.1-2.3,7.5-1.6,9.8,1.6c0.3,0.4,0.5,0.8,0.7,1.2C1336.5,241.8,1336.7,242.9,1336.6,244.1z"/>
		<line class="st3" x1="600.5" y1="800.2" x2="600.5" y2="800.2"/>
		<path class="st3" d="M639.4,852.6c2.3,3.1,1.6,7.5-1.6,9.8c-3.1,2.3-7.5,1.6-9.8-1.6c-0.9-1.2-1.3-2.6-1.3-4c0-2.2,1-4.4,2.9-5.8
			C632.8,848.8,637.1,849.5,639.4,852.6z"/>
		<path class="st4" d="M625,919.8c2.3,3.1,1.6,7.5-1.6,9.8c-3.1,2.3-7.5,1.6-9.8-1.6c-2-2.8-1.7-6.5,0.5-8.9c0.3-0.3,0.7-0.6,1-0.9
			C618.4,915.9,622.8,916.6,625,919.8z"/>
		<path class="st3" d="M583.7,958.3c2.3,3.1,1.6,7.5-1.6,9.8c-3.1,2.3-7.5,1.6-9.8-1.6c-2.3-3.1-1.6-7.5,1.6-9.8
			c0.8-0.5,1.6-0.9,2.4-1.1C579.1,954.9,582,955.9,583.7,958.3z"/>
		<path class="st3" d="M483.9,777.5c2.3,3.1,1.6,7.5-1.6,9.8l0,0c-3.1,2.3-7.5,1.6-9.8-1.6c-2.3-3.1-1.6-7.5,1.6-9.8
			C477.2,773.7,481.6,774.4,483.9,777.5z"/>
		<path class="st3" d="M725.7,284.8c-0.1,2-1,3.9-2.7,5.2c-0.3,0.3-0.7,0.5-1,0.7c-1.9,1-4,1.1-5.9,0.3c-1.5-0.6-2.8-1.7-3.6-3.2
			c-1.8-3.4-0.5-7.6,2.9-9.5c3.4-1.8,7.7-0.5,9.5,2.9C725.5,282.3,725.8,283.5,725.7,284.8z"/>
		<path class="st3" d="M851.3,301.2c0.6-1.2,1.6-2.2,2.9-2.9c3.4-1.8,7.6-0.5,9.5,2.9c1.8,3.4,0.5,7.6-2.9,9.5c-2.3,1.2-5,1-7.1-0.3
			c-1-0.6-1.8-1.5-2.3-2.6C850.2,305.7,850.3,303.2,851.3,301.2z"/>
		<line class="st3" x1="1499.5" y1="825.5" x2="1384.5" y2="846.5"/>
		<line class="st3" x1="1311.8" y1="904.7" x2="1381.6" y2="1033.1"/>
		<line class="st3" x1="1267.5" y1="976.8" x2="1305.3" y2="904.7"/>
		<line class="st3" x1="1378.5" y1="1035.8" x2="1268.9" y2="986.9"/>
		<path class="st3" d="M1486.6,925.7c1.1-0.8,2.5-1.2,3.9-1.2c3.9,0,7,3.1,7,7s-3.1,7-7,7c-2.7,0-4.9-1.5-6.1-3.6"/>
		<path class="st3" d="M1383.5,852.1l103.1,73.6c-1.9,1.3-3.1,3.4-3.1,5.8c0,1.2,0.3,2.4,0.9,3.4l-95.5,99.1"/>
		<line class="st3" x1="1384.3" y1="1032.5" x2="1378.7" y2="855.4"/>
		<line class="st3" x1="1372.2" y1="853" x2="1314.2" y2="894.4"/>
		<path class="st4" d="M1268.9,986.9c-1.3,1.6-3.2,2.6-5.4,2.6c-3.9,0-7-3.1-7-7s3.1-7,7-7c1.5,0,2.9,0.5,4,1.3"/>
		<path class="st3" d="M1267.5,976.8c1.8,1.3,3,3.4,3,5.7c0,1.7-0.6,3.2-1.6,4.4"/>
		<path class="st3" d="M1314.2,894.4c0.8,1.2,1.3,2.5,1.3,4.1c0,2.7-1.5,5-3.7,6.2c-1,0.5-2.1,0.8-3.3,0.8c-1.2,0-2.3-0.3-3.3-0.8
			c-2.2-1.2-3.8-3.5-3.8-6.2c0-3.9,3.1-7,7-7C1310.8,891.5,1312.9,892.7,1314.2,894.4z"/>
		<path class="st3" d="M1372.2,853c-1.1-1.2-1.7-2.8-1.7-4.5c0-3.9,3.1-7,7-7c3.1,0,5.7,2,6.6,4.8c0.2,0.7,0.4,1.4,0.4,2.2
			c0,1.3-0.4,2.5-1,3.6c-1,1.7-2.8,3-4.8,3.3c-0.4,0.1-0.8,0.1-1.2,0.1C1375.4,855.5,1373.4,854.5,1372.2,853z"/>
		<path class="st4" d="M1384.3,1032.5c0.1,0,0.1,0,0.2,0c1.6,0,3.1,0.6,4.3,1.5"/>
		<path class="st3" d="M1388.8,1034c1.1,0.8,1.9,2,2.3,3.3c0.2,0.7,0.4,1.4,0.4,2.2c0,1.3-0.4,2.5-1,3.6c-1,1.7-2.8,3-4.8,3.3
			c-0.4,0.1-0.8,0.1-1.2,0.1c-2.1,0-4.1-1-5.3-2.5c-1.1-1.2-1.7-2.8-1.7-4.5c0-1.3,0.4-2.6,1-3.7c0.7-1.2,1.8-2.1,3-2.7
			c0.8-0.4,1.8-0.6,2.7-0.6"/>
		<polyline class="st3" points="1383.5,641.5 1383.5,641.5 1338,534 		"/>
		<line class="st3" x1="1185.3" y1="447.8" x2="1263.7" y2="469.4"/>
		<path class="st3" d="M1265.2,475.8l-110.1,94.8c-0.4-0.5-0.9-0.9-1.4-1.3c-0.8-0.5-1.6-0.8-2.4-1l24.5-117"/>
		<line class="st3" x1="1331.7" y1="534.7" x2="1282" y2="650.1"/>
		<line class="st3" x1="1272.3" y1="650.9" x2="1155.7" y2="578.8"/>
		<line class="st3" x1="1327.5" y1="530.7" x2="1156.6" y2="573.5"/>
		<line class="st3" x1="1328.4" y1="523.8" x2="1275.7" y2="476"/>
		<path class="st3" d="M1185.3,447.8c-0.9,2-2.7,3.6-5,4.1c-1.6,0.4-3.3,0.1-4.7-0.6c-1.8-0.9-3.2-2.6-3.7-4.8
			c-0.8-3.8,1.6-7.5,5.4-8.3c3.8-0.8,7.5,1.6,8.3,5.4C1186,445,1185.9,446.5,1185.3,447.8z"/>
		<path class="st3" d="M292.5,549.8l38.9-65.5c2.1,1.5,5,1.8,7.4,0.5c0.3-0.2,0.6-0.3,0.9-0.5l68.5,126.2c-1.4,0.8-2.4,1.9-3,3.2h0
			l-111.3-53.8"/>
		<path class="st3" d="M292.5,549.8c1.8,1.3,3,3.4,3,5.7c0,1.7-0.6,3.2-1.6,4.4c-1.3,1.6-3.2,2.6-5.4,2.6c-3.9,0-7-3.1-7-7
			s3.1-7,7-7C290,548.5,291.4,549,292.5,549.8z"/>
		<path class="st3" d="M929.5,582.2c-0.4-0.2-0.7-0.5-1-0.8c-2.7-2.8-2.6-7.2,0.1-9.9c2.8-2.7,7.2-2.6,9.9,0.1
			c2.7,2.8,2.6,7.2-0.1,9.9c-0.7,0.7-1.5,1.2-2.4,1.5"/>
		<path class="st3" d="M891.5,654.8l38-72.5c1.9,1.4,4.4,1.6,6.5,0.8l69.1,127.3c-0.6,0.3-1.1,0.7-1.5,1.1c-0.7,0.6-1.2,1.4-1.5,2.2
			l-109.2-48.7"/>
		<path class="st3" d="M577.2,198.4c2.7-1.5,6.1-1,8.4,1.3c2.7,2.8,2.6,7.2-0.1,9.9c-2.8,2.7-7.2,2.7-9.9-0.1
			c-2.1-2.1-2.5-5.2-1.4-7.7"/>
		<path class="st3" d="M501.5,70.2c-0.4-0.2-0.7-0.5-1-0.8c-2.7-2.8-2.6-7.2,0.1-9.9c2.8-2.7,7.2-2.7,9.9,0.1s2.6,7.2-0.1,9.9
			c-0.7,0.7-1.5,1.2-2.4,1.5"/>
		<path class="st3" d="M463.5,142.8l38-72.5c1.9,1.4,4.4,1.6,6.5,0.8l69.1,127.3c-0.6,0.3-1.1,0.7-1.5,1.1c-0.7,0.6-1.2,1.4-1.5,2.2
			l-109.2-48.7"/>
		<line class="st3" x1="1780" y1="393" x2="1850" y2="522"/>
		<line class="st3" x1="1735.5" y1="464.8" x2="1773.5" y2="392.2"/>
		<line class="st3" x1="1847.1" y1="524.1" x2="1736.9" y2="474.9"/>
		<path class="st3" d="M1735.5,464.8c1.8,1.3,3,3.4,3,5.7c0,1.7-0.6,3.2-1.6,4.4c-1.3,1.6-3.2,2.6-5.4,2.6c-3.9,0-7-3.1-7-7
			s3.1-7,7-7C1733,463.5,1734.4,464,1735.5,464.8z"/>
		<path class="st3" d="M1850,522c0.8-0.3,1.6-0.5,2.5-0.5c3.9,0,7,3.1,7,7s-3.1,7-7,7s-7-3.1-7-7c0-1.7,0.6-3.2,1.6-4.4
			C1847.8,523.1,1848.9,522.4,1850,522z"/>
		<path class="st3" d="M1773.5,392.2c-1.8-1.3-3-3.4-3-5.7c0-3.9,3.1-7,7-7s7,3.1,7,7c0,3-1.8,5.5-4.5,6.5c-0.8,0.3-1.6,0.5-2.5,0.5
			C1776,393.5,1774.6,393,1773.5,392.2z"/>
		<path class="st3" d="M1275.7,476c-0.9,1-2.2,1.8-3.7,2.1c-2.6,0.6-5.2-0.4-6.8-2.3c-0.7-0.9-1.3-1.9-1.5-3.1
			c-0.3-1.1-0.2-2.3,0.1-3.3c0.7-2.4,2.6-4.4,5.3-5c3.8-0.8,7.5,1.6,8.3,5.4C1277.8,472.1,1277.1,474.3,1275.7,476z"/>
		<path class="st3" d="M1328.4,523.8c1-1.3,2.4-2.2,4.1-2.6c3.8-0.8,7.5,1.6,8.3,5.3c0.7,3-0.8,6-3.3,7.5c-0.6,0.4-1.3,0.7-2.1,0.8
			c-1.3,0.3-2.5,0.2-3.7-0.2c-1.9-0.6-3.5-2.1-4.3-4c-0.2-0.4-0.3-0.8-0.4-1.2C1326.7,527.5,1327.2,525.4,1328.4,523.8z"/>
		<path class="st3" d="M1392.5,647.8c0,3.7-3,6.7-6.7,6.7c-3.7,0-6.7-3-6.7-6.7c0-2.8,1.7-5.3,4.2-6.3c0.1,0,0.1,0,0.2-0.1
			c0.7-0.3,1.5-0.4,2.3-0.4C1389.5,641,1392.5,644,1392.5,647.8z"/>
		<line class="st3" x1="1577.6" y1="130.9" x2="1462.6" y2="120.2"/>
		<line class="st3" x1="1578.2" y1="134.3" x2="1488.9" y2="173.5"/>
		<line class="st3" x1="1476.1" y1="179.1" x2="1336" y2="240.6"/>
		<path class="st3" d="M65.5,874.5c0.5,0.5,1.1,0.9,1.6,1.4c47.2,41,92.8,59.1,114.4,43.6c3.6-2.6,4.2-1.7,6.9-7.7
			c0-0.1,0.1-0.2,0.1-0.3"/>
		<path class="st3" d="M136.5,653.5c0.1,0.2,0.1,0.4,0.2,0.6c5.4,14.4,18,22.4,28.8,20.4c7.2-1.3,11.8-6.8,13.7-9.5
			c0.1-0.2,0.2-0.3,0.3-0.5"/>
		<path class="st3" d="M126.5,389.5c23.9-4.8,44.7,3.6,51,18c1.3,2.9,3.4,9.3,1,19"/>
		<path class="st3" d="M1085.5,791.5c-0.8,5.4-19,22-50,27"/>
		<path class="st3" d="M1013.5,179.5c0.1-0.1,0.2-0.1,0.2-0.2c5.1-3.7,34.3-24,66.8-13.8c9.7,3.1,17.2,8.1,22.5,12.6
			c0.2,0.1,0.3,0.3,0.5,0.4"/>
		<path class="st3" d="M757.5,1004.5c41,8.5,80-16.5,80-22"/>
		<path class="st3" d="M520.5,557.5c70.6,2.8,115.2,24.1,121,54c1,5,0.8,11.2-1.9,18.7c0,0.1-0.1,0.2-0.1,0.3"/>
		<path class="st3" d="M520.5,557.8c-0.1,1.7-0.8,3.4-2.1,4.7c-2.8,2.7-7.2,2.6-9.9-0.1c-2.7-2.8-2.6-7.2,0.1-9.9
			c2.8-2.7,7.2-2.6,9.9,0.1C519.9,554.1,520.6,556,520.5,557.8z"/>
	</g>
</g>
</svg>
