<?xml version="1.0" encoding="utf-8"?>
<!-- Generator: Adobe Illustrator 23.0.3, SVG Export Plug-In . SVG Version: 6.00 Build 0)  -->
<svg version="1.1" id="Layer_1" xmlns="http://www.w3.org/2000/svg" xmlns:xlink="http://www.w3.org/1999/xlink" x="0px" y="0px"
	 viewBox="0 0 500 500" style="enable-background:new 0 0 500 500;" xml:space="preserve">
<style type="text/css">
	.st0{display:none;}
	.st1{fill:url(#SVGID_1_);}
	.st2{fill:#600E0E;}
	.st3{fill:url(#SVGID_2_);}
	.st4{fill:url(#SVGID_3_);}
	.st5{fill:#FFFFFF;}
	.st6{fill:#F1EBFF;}
	.st7{fill:#01000A;}
	.st8{fill:#000508;}
	.st9{fill:url(#SVGID_4_);}
	.st10{fill:none;stroke:#000000;stroke-width:0.5;stroke-linecap:round;stroke-linejoin:round;}
	.st11{fill:none;stroke:#D0CCFF;stroke-miterlimit:10;}
	.st12{fill:none;stroke:#000000;stroke-miterlimit:10;}
</style>
<g class="st0">
</g>
<g>
	<g>
		<g id="XMLID_1_">
			<g>
				
					<linearGradient id="SVGID_1_" gradientUnits="userSpaceOnUse" x1="360.0128" y1="419.005" x2="217.2956" y2="419.005" gradientTransform="matrix(1 0 0 -1 0 502)">
					<stop  offset="0" style="stop-color:#FF0000"/>
					<stop  offset="1" style="stop-color:#603813"/>
				</linearGradient>
				<path class="st1" d="M391.5,67.1C437,99.5,415,130.7,415,130.7c-0.2-0.1-0.4-0.3-0.7-0.5c-3-4.7-27.9-24.6-63.3-44.5
					c-36.5-20.5-68.7-29.7-73.4-29.1c22.1-48.2,99.3-0.9,111.3,8.6L391.5,67.1z"/>
				<path class="st2" d="M414.6,130.7c0.7,2.1-31.9-13.1-69.3-34.7c-38.1-22-69.4-37.4-68.2-39.3c0.1-0.1,0.3-0.2,0.6-0.2
					c0,0.1-0.1,0.2-0.1,0.2c78.4,20.2,128,66.7,136.8,73.4C414.4,130.4,414.5,130.5,414.6,130.7z"/>
				
					<linearGradient id="SVGID_2_" gradientUnits="userSpaceOnUse" x1="341.179" y1="401.1037" x2="157.3628" y2="82.7245" gradientTransform="matrix(1 0 0 -1 0 502)">
					<stop  offset="0" style="stop-color:#FF0000"/>
					<stop  offset="0.9553" style="stop-color:#603813"/>
				</linearGradient>
				<path class="st3" d="M433,260.1c0,70-39.1,130.9-96.7,161.9l-5.4,2.8l0,0c-24.6,12.2-52.3,19.1-81.6,19.1
					c-26.4,0-51.6-5.6-74.3-15.6l-19.5-10.1l0,0c-53.9-32-90-90.8-90-158.1c0-101.5,82.3-183.8,183.8-183.8S433,158.6,433,260.1z
					 M412.2,260.1c0-90-73-163-163-163s-163,73-163,163s73,163,163,163S412.2,350.1,412.2,260.1z"/>
				
					<linearGradient id="SVGID_3_" gradientUnits="userSpaceOnUse" x1="330.809" y1="382.9778" x2="167.791" y2="100.6222" gradientTransform="matrix(1 0 0 -1 0 502)">
					<stop  offset="3.631285e-02" style="stop-color:#F50407"/>
					<stop  offset="0.5419" style="stop-color:#FFFFFF"/>
					<stop  offset="0.9553" style="stop-color:#0071BC"/>
				</linearGradient>
				<path class="st4" d="M249.3,97.2c90,0,163,73,163,163s-73,163-163,163s-163-73-163-163S159.3,97.2,249.3,97.2z M403,260.1
					c0-84.9-68.8-153.7-153.7-153.7S95.5,175.2,95.5,260.1s68.8,153.7,153.7,153.7S403,345,403,260.1z"/>
				<path class="st5" d="M249.3,106.4c84.9,0,153.7,68.8,153.7,153.7s-68.8,153.7-153.7,153.7S95.5,345,95.5,260.1
					S164.4,106.4,249.3,106.4z M396,260.1c0-81.1-65.7-146.8-146.8-146.8S102.4,179,102.4,260.1s65.7,146.8,146.8,146.8
					S396,341.2,396,260.1z"/>
				<path class="st6" d="M339.2,420.5l18.3,38.4l-15,8.1l-22.8-36.5l11.1-5.8l0,0c1.8-0.9,3.6-1.8,5.4-2.8L339.2,420.5z"/>
				<path class="st5" d="M249.3,113.3c81.1,0,146.8,65.7,146.8,146.8s-65.7,146.8-146.8,146.8s-146.8-65.7-146.8-146.8
					S168.2,113.3,249.3,113.3z M255.9,191.6c0-19.1-2.8-61.3-6.7-63.5c-5.9-3.4-13.6,119.5-3.7,119.2
					C250.8,247.2,255.9,253.2,255.9,191.6z M166,308.7c0,4.6,74-32.4,70.5-38.1c-1.8-3.1,0-8.1-35.8,12.7
					C189.6,289.7,166,305.6,166,308.7z"/>
				<polygon class="st6" points="268.9,42.8 268.9,56.7 256.2,56.7 255.9,76.4 249.3,76.4 246.4,76.4 247,56.7 235.4,56.7 
					235.4,42.8 				"/>
				<path class="st7" d="M249.2,128.1c3.9,2.3,6.7,44.5,6.7,63.5c0,61.6-5.1,55.6-10.4,55.7C235.6,247.5,243.3,124.7,249.2,128.1z"
					/>
				<path class="st8" d="M236.5,270.5c3.5,5.8-70.5,42.8-70.5,38.1c0-3.1,23.6-19,34.7-25.4C236.5,262.4,234.7,267.5,236.5,270.5z"
					/>
				<path class="st2" d="M223.8,54.4c1.2,1.9-30,17.3-68.2,39.3c-37.4,21.6-70,36.8-69.3,34.7C92.7,124.1,142.9,75.2,223.8,54.4z"/>
				
					<linearGradient id="SVGID_4_" gradientUnits="userSpaceOnUse" x1="132.7534" y1="391.4956" x2="61.3335" y2="267.7928" gradientTransform="matrix(1 0 0 -1 0 502)">
					<stop  offset="0" style="stop-color:#FF0000"/>
					<stop  offset="0.9553" style="stop-color:#603813"/>
				</linearGradient>
				<path class="st9" d="M223.8,54.4c-1.2-1.9-35.2,7.1-74,28.9c-37,20.8-62.4,41.6-63.6,45.1c0,0-22-31.2,23.5-63.5l2.7-2
					C124.4,53.2,201.9,5.9,223.8,54.4z"/>
				<path class="st6" d="M175,428.2l-22.8,36.5l-15-8.1l18.3-38.4C161.7,421.9,168.2,425.3,175,428.2z"/>
			</g>
			<g>
				<path class="st10" d="M330.9,424.8c-24.6,12.2-52.3,19.1-81.6,19.1c-26.4,0-51.6-5.6-74.3-15.6c-6.7-3-13.2-6.3-19.5-10.1
					c-53.9-32-90-90.8-90-158.1c0-101.5,82.3-183.8,183.8-183.8S433,158.6,433,260.1c0,70-39.1,130.9-96.7,161.9
					C334.5,423,332.7,423.9,330.9,424.8"/>
				<circle class="st11" cx="249.3" cy="260.1" r="163"/>
				<circle class="st12" cx="249.3" cy="260.1" r="153.7"/>
				<circle class="st12" cx="249.3" cy="260.1" r="146.8"/>
				<polygon class="st12" points="175,428.2 155.5,418.2 155.5,418.2 137.2,456.6 152.2,464.7 				"/>
				<polygon class="st12" points="336.3,422 339.2,420.5 357.6,458.9 342.5,467 319.8,430.5 330.9,424.8 330.9,424.8 				"/>
				<path class="st12" d="M166,308.7c0-3.1,23.6-19,34.7-25.4c35.8-20.8,34-15.8,35.8-12.7C240,276.3,166,313.3,166,308.7z"/>
				<path class="st12" d="M245.5,247.3c-10,0.2-2.3-122.6,3.7-119.2c3.9,2.3,6.7,44.5,6.7,63.5C255.9,253.2,250.8,247.2,245.5,247.3
					z"/>
				<path class="st12" d="M86.3,128.4c0,0-22-31.2,23.5-63.5l2.7-2c12-9.6,89.4-57,111.4-8.4C142.9,75.2,92.7,124.1,86.3,128.4z"/>
				<path class="st12" d="M223.8,54.4c-1.2-1.9-35.2,7.1-74,28.9c-37,20.8-62.4,41.6-63.6,45.1c-0.7,2.1,31.9-13.1,69.3-34.7
					C193.8,71.7,225.1,56.3,223.8,54.4z"/>
				<path class="st12" d="M414.3,130.1c0.1,0.2,0.2,0.4,0.3,0.5c0.7,2.1-31.9-13.1-69.3-34.7c-38.1-22-69.4-37.4-68.2-39.3
					c0.1-0.1,0.3-0.2,0.6-0.2c4.7-0.5,36.9,8.6,73.4,29.1C386.4,105.5,411.2,125.5,414.3,130.1z"/>
				<path class="st12" d="M414.3,130.1c0.3,0.2,0.5,0.4,0.7,0.5c0,0,22-31.2-23.5-63.5l-2.7-2c-12-9.6-89.2-56.8-111.3-8.6
					c0,0.1-0.1,0.2-0.1,0.2C355.8,76.9,405.5,123.4,414.3,130.1z"/>
				<polygon class="st12" points="246.4,76.4 247,56.7 235.4,56.7 235.4,42.8 268.9,42.8 268.9,56.7 256.2,56.7 255.9,76.4 
					249.3,76.4 				"/>
			</g>
		</g>
	</g>
</g>
</svg>
